<mxfile host="Electron" agent="Mozilla/5.0 (Windows NT 10.0; Win64; x64) AppleWebKit/537.36 (KHTML, like Gecko) draw.io/26.0.4 Chrome/128.0.6613.186 Electron/32.2.5 Safari/537.36" version="26.0.4">
  <diagram name="Page-1" id="X04Mw3Gw8nxOII69zzvJ">
    <mxGraphModel dx="1034" dy="511" grid="1" gridSize="10" guides="1" tooltips="1" connect="1" arrows="1" fold="1" page="1" pageScale="1" pageWidth="850" pageHeight="1100" math="0" shadow="0">
      <root>
        <mxCell id="0" />
        <mxCell id="1" parent="0" />
        <mxCell id="LGlkHWS4qKsqTmbDjTO9-1" value="" style="ellipse;whiteSpace=wrap;html=1;aspect=fixed;" parent="1" vertex="1">
          <mxGeometry x="40" y="380" width="30" height="30" as="geometry" />
        </mxCell>
        <mxCell id="LGlkHWS4qKsqTmbDjTO9-2" value="" style="ellipse;whiteSpace=wrap;html=1;aspect=fixed;" parent="1" vertex="1">
          <mxGeometry x="40" y="230" width="30" height="30" as="geometry" />
        </mxCell>
        <mxCell id="LGlkHWS4qKsqTmbDjTO9-3" value="" style="ellipse;whiteSpace=wrap;html=1;aspect=fixed;" parent="1" vertex="1">
          <mxGeometry x="40" y="300" width="30" height="30" as="geometry" />
        </mxCell>
        <mxCell id="LGlkHWS4qKsqTmbDjTO9-4" value="" style="ellipse;whiteSpace=wrap;html=1;aspect=fixed;" parent="1" vertex="1">
          <mxGeometry x="250" y="490" width="30" height="30" as="geometry" />
        </mxCell>
        <mxCell id="LGlkHWS4qKsqTmbDjTO9-6" value="" style="ellipse;whiteSpace=wrap;html=1;aspect=fixed;" parent="1" vertex="1">
          <mxGeometry x="250" y="120" width="30" height="30" as="geometry" />
        </mxCell>
        <mxCell id="LGlkHWS4qKsqTmbDjTO9-7" value="" style="ellipse;whiteSpace=wrap;html=1;aspect=fixed;" parent="1" vertex="1">
          <mxGeometry x="250" y="200" width="30" height="30" as="geometry" />
        </mxCell>
        <mxCell id="LGlkHWS4qKsqTmbDjTO9-8" value="" style="ellipse;whiteSpace=wrap;html=1;aspect=fixed;" parent="1" vertex="1">
          <mxGeometry x="250" y="270" width="30" height="30" as="geometry" />
        </mxCell>
        <mxCell id="LGlkHWS4qKsqTmbDjTO9-9" value="" style="ellipse;whiteSpace=wrap;html=1;aspect=fixed;" parent="1" vertex="1">
          <mxGeometry x="250" y="340" width="30" height="30" as="geometry" />
        </mxCell>
        <mxCell id="LGlkHWS4qKsqTmbDjTO9-10" value="" style="ellipse;whiteSpace=wrap;html=1;aspect=fixed;" parent="1" vertex="1">
          <mxGeometry x="250" y="410" width="30" height="30" as="geometry" />
        </mxCell>
        <mxCell id="LGlkHWS4qKsqTmbDjTO9-13" value="" style="ellipse;whiteSpace=wrap;html=1;aspect=fixed;" parent="1" vertex="1">
          <mxGeometry x="425" y="350" width="30" height="30" as="geometry" />
        </mxCell>
        <mxCell id="LGlkHWS4qKsqTmbDjTO9-14" value="" style="ellipse;whiteSpace=wrap;html=1;aspect=fixed;" parent="1" vertex="1">
          <mxGeometry x="425" y="260" width="30" height="30" as="geometry" />
        </mxCell>
        <mxCell id="LGlkHWS4qKsqTmbDjTO9-15" value="" style="endArrow=classic;html=1;rounded=0;exitX=1;exitY=0.5;exitDx=0;exitDy=0;entryX=0;entryY=1;entryDx=0;entryDy=0;" parent="1" source="LGlkHWS4qKsqTmbDjTO9-2" target="LGlkHWS4qKsqTmbDjTO9-6" edge="1">
          <mxGeometry width="50" height="50" relative="1" as="geometry">
            <mxPoint x="310" y="420" as="sourcePoint" />
            <mxPoint x="360" y="370" as="targetPoint" />
          </mxGeometry>
        </mxCell>
        <mxCell id="LGlkHWS4qKsqTmbDjTO9-16" value="" style="endArrow=classic;html=1;rounded=0;exitX=1;exitY=0.5;exitDx=0;exitDy=0;entryX=0;entryY=1;entryDx=0;entryDy=0;" parent="1" source="LGlkHWS4qKsqTmbDjTO9-1" target="LGlkHWS4qKsqTmbDjTO9-6" edge="1">
          <mxGeometry width="50" height="50" relative="1" as="geometry">
            <mxPoint x="120" y="265" as="sourcePoint" />
            <mxPoint x="264" y="156" as="targetPoint" />
          </mxGeometry>
        </mxCell>
        <mxCell id="LGlkHWS4qKsqTmbDjTO9-17" value="" style="endArrow=classic;html=1;rounded=0;exitX=1;exitY=0.5;exitDx=0;exitDy=0;entryX=0;entryY=1;entryDx=0;entryDy=0;" parent="1" source="LGlkHWS4qKsqTmbDjTO9-3" target="LGlkHWS4qKsqTmbDjTO9-6" edge="1">
          <mxGeometry width="50" height="50" relative="1" as="geometry">
            <mxPoint x="130" y="275" as="sourcePoint" />
            <mxPoint x="250" y="150" as="targetPoint" />
          </mxGeometry>
        </mxCell>
        <mxCell id="LGlkHWS4qKsqTmbDjTO9-18" value="" style="endArrow=classic;html=1;rounded=0;exitX=1;exitY=0.5;exitDx=0;exitDy=0;entryX=0;entryY=0.5;entryDx=0;entryDy=0;" parent="1" source="LGlkHWS4qKsqTmbDjTO9-2" target="LGlkHWS4qKsqTmbDjTO9-7" edge="1">
          <mxGeometry width="50" height="50" relative="1" as="geometry">
            <mxPoint x="120" y="395" as="sourcePoint" />
            <mxPoint x="264" y="156" as="targetPoint" />
          </mxGeometry>
        </mxCell>
        <mxCell id="LGlkHWS4qKsqTmbDjTO9-19" value="" style="endArrow=classic;html=1;rounded=0;exitX=1;exitY=0.5;exitDx=0;exitDy=0;entryX=0;entryY=0.5;entryDx=0;entryDy=0;" parent="1" source="LGlkHWS4qKsqTmbDjTO9-3" target="LGlkHWS4qKsqTmbDjTO9-7" edge="1">
          <mxGeometry width="50" height="50" relative="1" as="geometry">
            <mxPoint x="120" y="265" as="sourcePoint" />
            <mxPoint x="260" y="225" as="targetPoint" />
          </mxGeometry>
        </mxCell>
        <mxCell id="LGlkHWS4qKsqTmbDjTO9-20" value="" style="endArrow=classic;html=1;rounded=0;exitX=1;exitY=0.5;exitDx=0;exitDy=0;entryX=0;entryY=0.5;entryDx=0;entryDy=0;" parent="1" source="LGlkHWS4qKsqTmbDjTO9-1" target="LGlkHWS4qKsqTmbDjTO9-7" edge="1">
          <mxGeometry width="50" height="50" relative="1" as="geometry">
            <mxPoint x="120" y="325" as="sourcePoint" />
            <mxPoint x="257" y="230" as="targetPoint" />
          </mxGeometry>
        </mxCell>
        <mxCell id="LGlkHWS4qKsqTmbDjTO9-21" value="" style="endArrow=classic;html=1;rounded=0;exitX=1;exitY=0.5;exitDx=0;exitDy=0;entryX=0;entryY=0.5;entryDx=0;entryDy=0;" parent="1" source="LGlkHWS4qKsqTmbDjTO9-1" target="LGlkHWS4qKsqTmbDjTO9-8" edge="1">
          <mxGeometry width="50" height="50" relative="1" as="geometry">
            <mxPoint x="120" y="395" as="sourcePoint" />
            <mxPoint x="260" y="225" as="targetPoint" />
          </mxGeometry>
        </mxCell>
        <mxCell id="LGlkHWS4qKsqTmbDjTO9-22" value="" style="endArrow=classic;html=1;rounded=0;exitX=1;exitY=0.5;exitDx=0;exitDy=0;entryX=0;entryY=0.5;entryDx=0;entryDy=0;" parent="1" source="LGlkHWS4qKsqTmbDjTO9-2" target="LGlkHWS4qKsqTmbDjTO9-8" edge="1">
          <mxGeometry width="50" height="50" relative="1" as="geometry">
            <mxPoint x="120" y="395" as="sourcePoint" />
            <mxPoint x="260" y="295" as="targetPoint" />
          </mxGeometry>
        </mxCell>
        <mxCell id="LGlkHWS4qKsqTmbDjTO9-23" value="" style="endArrow=classic;html=1;rounded=0;exitX=1;exitY=0.5;exitDx=0;exitDy=0;entryX=0;entryY=0.5;entryDx=0;entryDy=0;" parent="1" source="LGlkHWS4qKsqTmbDjTO9-3" target="LGlkHWS4qKsqTmbDjTO9-8" edge="1">
          <mxGeometry width="50" height="50" relative="1" as="geometry">
            <mxPoint x="120" y="265" as="sourcePoint" />
            <mxPoint x="260" y="295" as="targetPoint" />
          </mxGeometry>
        </mxCell>
        <mxCell id="LGlkHWS4qKsqTmbDjTO9-24" value="" style="endArrow=classic;html=1;rounded=0;entryX=0;entryY=0.5;entryDx=0;entryDy=0;exitX=1;exitY=0.5;exitDx=0;exitDy=0;" parent="1" source="LGlkHWS4qKsqTmbDjTO9-1" target="LGlkHWS4qKsqTmbDjTO9-9" edge="1">
          <mxGeometry width="50" height="50" relative="1" as="geometry">
            <mxPoint x="110" y="380" as="sourcePoint" />
            <mxPoint x="260" y="295" as="targetPoint" />
          </mxGeometry>
        </mxCell>
        <mxCell id="LGlkHWS4qKsqTmbDjTO9-25" value="" style="endArrow=classic;html=1;rounded=0;entryX=0;entryY=0.5;entryDx=0;entryDy=0;exitX=1;exitY=0.5;exitDx=0;exitDy=0;" parent="1" source="LGlkHWS4qKsqTmbDjTO9-3" target="LGlkHWS4qKsqTmbDjTO9-9" edge="1">
          <mxGeometry width="50" height="50" relative="1" as="geometry">
            <mxPoint x="120" y="395" as="sourcePoint" />
            <mxPoint x="260" y="365" as="targetPoint" />
          </mxGeometry>
        </mxCell>
        <mxCell id="LGlkHWS4qKsqTmbDjTO9-26" value="" style="endArrow=classic;html=1;rounded=0;entryX=0;entryY=0.5;entryDx=0;entryDy=0;exitX=1;exitY=0.5;exitDx=0;exitDy=0;" parent="1" source="LGlkHWS4qKsqTmbDjTO9-2" target="LGlkHWS4qKsqTmbDjTO9-9" edge="1">
          <mxGeometry width="50" height="50" relative="1" as="geometry">
            <mxPoint x="120" y="325" as="sourcePoint" />
            <mxPoint x="260" y="365" as="targetPoint" />
          </mxGeometry>
        </mxCell>
        <mxCell id="LGlkHWS4qKsqTmbDjTO9-27" value="" style="endArrow=classic;html=1;rounded=0;entryX=0;entryY=0.5;entryDx=0;entryDy=0;exitX=1;exitY=0.5;exitDx=0;exitDy=0;" parent="1" source="LGlkHWS4qKsqTmbDjTO9-3" target="LGlkHWS4qKsqTmbDjTO9-10" edge="1">
          <mxGeometry width="50" height="50" relative="1" as="geometry">
            <mxPoint x="70" y="320" as="sourcePoint" />
            <mxPoint x="260" y="365" as="targetPoint" />
          </mxGeometry>
        </mxCell>
        <mxCell id="LGlkHWS4qKsqTmbDjTO9-29" value="" style="endArrow=classic;html=1;rounded=0;entryX=0;entryY=0.5;entryDx=0;entryDy=0;exitX=1;exitY=0.5;exitDx=0;exitDy=0;" parent="1" source="LGlkHWS4qKsqTmbDjTO9-1" target="LGlkHWS4qKsqTmbDjTO9-4" edge="1">
          <mxGeometry width="50" height="50" relative="1" as="geometry">
            <mxPoint x="80" y="405" as="sourcePoint" />
            <mxPoint x="260" y="435" as="targetPoint" />
          </mxGeometry>
        </mxCell>
        <mxCell id="LGlkHWS4qKsqTmbDjTO9-30" value="" style="endArrow=classic;html=1;rounded=0;entryX=-0.11;entryY=0.441;entryDx=0;entryDy=0;exitX=1;exitY=0.5;exitDx=0;exitDy=0;entryPerimeter=0;" parent="1" source="LGlkHWS4qKsqTmbDjTO9-2" target="LGlkHWS4qKsqTmbDjTO9-10" edge="1">
          <mxGeometry width="50" height="50" relative="1" as="geometry">
            <mxPoint x="90" y="415" as="sourcePoint" />
            <mxPoint x="270" y="445" as="targetPoint" />
          </mxGeometry>
        </mxCell>
        <mxCell id="LGlkHWS4qKsqTmbDjTO9-31" value="" style="endArrow=classic;html=1;rounded=0;entryX=0;entryY=0.5;entryDx=0;entryDy=0;exitX=1;exitY=0.5;exitDx=0;exitDy=0;" parent="1" source="LGlkHWS4qKsqTmbDjTO9-1" target="LGlkHWS4qKsqTmbDjTO9-10" edge="1">
          <mxGeometry width="50" height="50" relative="1" as="geometry">
            <mxPoint x="80" y="405" as="sourcePoint" />
            <mxPoint x="260" y="515" as="targetPoint" />
          </mxGeometry>
        </mxCell>
        <mxCell id="LGlkHWS4qKsqTmbDjTO9-32" value="" style="endArrow=classic;html=1;rounded=0;entryX=0;entryY=0.5;entryDx=0;entryDy=0;exitX=1;exitY=0.5;exitDx=0;exitDy=0;" parent="1" source="LGlkHWS4qKsqTmbDjTO9-3" target="LGlkHWS4qKsqTmbDjTO9-4" edge="1">
          <mxGeometry width="50" height="50" relative="1" as="geometry">
            <mxPoint x="80" y="405" as="sourcePoint" />
            <mxPoint x="260" y="515" as="targetPoint" />
          </mxGeometry>
        </mxCell>
        <mxCell id="LGlkHWS4qKsqTmbDjTO9-33" value="" style="endArrow=classic;html=1;rounded=0;exitX=1;exitY=0.5;exitDx=0;exitDy=0;entryX=0;entryY=0.5;entryDx=0;entryDy=0;" parent="1" source="LGlkHWS4qKsqTmbDjTO9-2" target="LGlkHWS4qKsqTmbDjTO9-4" edge="1">
          <mxGeometry width="50" height="50" relative="1" as="geometry">
            <mxPoint x="80" y="325" as="sourcePoint" />
            <mxPoint x="250" y="470" as="targetPoint" />
          </mxGeometry>
        </mxCell>
        <mxCell id="LGlkHWS4qKsqTmbDjTO9-34" value="" style="endArrow=classic;html=1;rounded=0;exitX=1;exitY=0.5;exitDx=0;exitDy=0;entryX=0;entryY=0.5;entryDx=0;entryDy=0;" parent="1" source="LGlkHWS4qKsqTmbDjTO9-6" target="LGlkHWS4qKsqTmbDjTO9-14" edge="1">
          <mxGeometry width="50" height="50" relative="1" as="geometry">
            <mxPoint x="80" y="255" as="sourcePoint" />
            <mxPoint x="264" y="156" as="targetPoint" />
          </mxGeometry>
        </mxCell>
        <mxCell id="LGlkHWS4qKsqTmbDjTO9-35" value="" style="endArrow=classic;html=1;rounded=0;exitX=1;exitY=0.5;exitDx=0;exitDy=0;entryX=0;entryY=0.5;entryDx=0;entryDy=0;" parent="1" source="LGlkHWS4qKsqTmbDjTO9-7" target="LGlkHWS4qKsqTmbDjTO9-14" edge="1">
          <mxGeometry width="50" height="50" relative="1" as="geometry">
            <mxPoint x="290" y="145" as="sourcePoint" />
            <mxPoint x="435" y="285" as="targetPoint" />
          </mxGeometry>
        </mxCell>
        <mxCell id="LGlkHWS4qKsqTmbDjTO9-36" value="" style="endArrow=classic;html=1;rounded=0;exitX=1;exitY=0.5;exitDx=0;exitDy=0;entryX=0;entryY=0.5;entryDx=0;entryDy=0;" parent="1" source="LGlkHWS4qKsqTmbDjTO9-8" target="LGlkHWS4qKsqTmbDjTO9-14" edge="1">
          <mxGeometry width="50" height="50" relative="1" as="geometry">
            <mxPoint x="290" y="225" as="sourcePoint" />
            <mxPoint x="435" y="285" as="targetPoint" />
          </mxGeometry>
        </mxCell>
        <mxCell id="LGlkHWS4qKsqTmbDjTO9-37" value="" style="endArrow=classic;html=1;rounded=0;exitX=1;exitY=0.5;exitDx=0;exitDy=0;entryX=0;entryY=0.5;entryDx=0;entryDy=0;" parent="1" source="LGlkHWS4qKsqTmbDjTO9-9" target="LGlkHWS4qKsqTmbDjTO9-13" edge="1">
          <mxGeometry width="50" height="50" relative="1" as="geometry">
            <mxPoint x="290" y="295" as="sourcePoint" />
            <mxPoint x="435" y="285" as="targetPoint" />
          </mxGeometry>
        </mxCell>
        <mxCell id="LGlkHWS4qKsqTmbDjTO9-38" value="" style="endArrow=classic;html=1;rounded=0;exitX=1;exitY=0.5;exitDx=0;exitDy=0;entryX=0;entryY=0.5;entryDx=0;entryDy=0;" parent="1" source="LGlkHWS4qKsqTmbDjTO9-10" target="LGlkHWS4qKsqTmbDjTO9-13" edge="1">
          <mxGeometry width="50" height="50" relative="1" as="geometry">
            <mxPoint x="290" y="365" as="sourcePoint" />
            <mxPoint x="435" y="375" as="targetPoint" />
          </mxGeometry>
        </mxCell>
        <mxCell id="LGlkHWS4qKsqTmbDjTO9-39" value="" style="endArrow=classic;html=1;rounded=0;exitX=1;exitY=0.5;exitDx=0;exitDy=0;entryX=0;entryY=0.5;entryDx=0;entryDy=0;" parent="1" source="LGlkHWS4qKsqTmbDjTO9-4" target="LGlkHWS4qKsqTmbDjTO9-13" edge="1">
          <mxGeometry width="50" height="50" relative="1" as="geometry">
            <mxPoint x="290" y="435" as="sourcePoint" />
            <mxPoint x="435" y="375" as="targetPoint" />
          </mxGeometry>
        </mxCell>
        <mxCell id="LGlkHWS4qKsqTmbDjTO9-40" value="" style="endArrow=classic;html=1;rounded=0;exitX=1;exitY=0.5;exitDx=0;exitDy=0;entryX=0;entryY=0.5;entryDx=0;entryDy=0;" parent="1" source="LGlkHWS4qKsqTmbDjTO9-9" target="LGlkHWS4qKsqTmbDjTO9-14" edge="1">
          <mxGeometry width="50" height="50" relative="1" as="geometry">
            <mxPoint x="290" y="295" as="sourcePoint" />
            <mxPoint x="435" y="285" as="targetPoint" />
          </mxGeometry>
        </mxCell>
        <mxCell id="LGlkHWS4qKsqTmbDjTO9-41" value="" style="endArrow=classic;html=1;rounded=0;exitX=1;exitY=0.5;exitDx=0;exitDy=0;entryX=0;entryY=0.5;entryDx=0;entryDy=0;" parent="1" source="LGlkHWS4qKsqTmbDjTO9-10" target="LGlkHWS4qKsqTmbDjTO9-14" edge="1">
          <mxGeometry width="50" height="50" relative="1" as="geometry">
            <mxPoint x="290" y="365" as="sourcePoint" />
            <mxPoint x="435" y="285" as="targetPoint" />
          </mxGeometry>
        </mxCell>
        <mxCell id="LGlkHWS4qKsqTmbDjTO9-42" value="" style="endArrow=classic;html=1;rounded=0;entryX=0;entryY=0.5;entryDx=0;entryDy=0;exitX=1;exitY=0.5;exitDx=0;exitDy=0;" parent="1" source="LGlkHWS4qKsqTmbDjTO9-4" target="LGlkHWS4qKsqTmbDjTO9-14" edge="1">
          <mxGeometry width="50" height="50" relative="1" as="geometry">
            <mxPoint x="290" y="500" as="sourcePoint" />
            <mxPoint x="435" y="285" as="targetPoint" />
          </mxGeometry>
        </mxCell>
        <mxCell id="LGlkHWS4qKsqTmbDjTO9-43" value="" style="endArrow=classic;html=1;rounded=0;exitX=1;exitY=0.5;exitDx=0;exitDy=0;entryX=0;entryY=0.5;entryDx=0;entryDy=0;" parent="1" source="LGlkHWS4qKsqTmbDjTO9-8" target="LGlkHWS4qKsqTmbDjTO9-13" edge="1">
          <mxGeometry width="50" height="50" relative="1" as="geometry">
            <mxPoint x="290" y="365" as="sourcePoint" />
            <mxPoint x="435" y="375" as="targetPoint" />
          </mxGeometry>
        </mxCell>
        <mxCell id="LGlkHWS4qKsqTmbDjTO9-44" value="" style="endArrow=classic;html=1;rounded=0;entryX=0;entryY=0.5;entryDx=0;entryDy=0;exitX=1;exitY=0.5;exitDx=0;exitDy=0;" parent="1" source="LGlkHWS4qKsqTmbDjTO9-7" target="LGlkHWS4qKsqTmbDjTO9-13" edge="1">
          <mxGeometry width="50" height="50" relative="1" as="geometry">
            <mxPoint x="290" y="230" as="sourcePoint" />
            <mxPoint x="435" y="375" as="targetPoint" />
          </mxGeometry>
        </mxCell>
        <mxCell id="LGlkHWS4qKsqTmbDjTO9-45" value="" style="endArrow=classic;html=1;rounded=0;entryX=0;entryY=0.5;entryDx=0;entryDy=0;exitX=1;exitY=0.5;exitDx=0;exitDy=0;" parent="1" source="LGlkHWS4qKsqTmbDjTO9-6" target="LGlkHWS4qKsqTmbDjTO9-13" edge="1">
          <mxGeometry width="50" height="50" relative="1" as="geometry">
            <mxPoint x="290" y="170" as="sourcePoint" />
            <mxPoint x="435" y="375" as="targetPoint" />
          </mxGeometry>
        </mxCell>
      </root>
    </mxGraphModel>
  </diagram>
</mxfile>
